<?xml version="1.0" encoding="UTF-8"?>
<svg width="605px" height="593px" viewBox="0 0 605 593" version="1.1" xmlns="http://www.w3.org/2000/svg" xmlns:xlink="http://www.w3.org/1999/xlink">
    <!-- Generator: Sketch 47 (45396) - http://www.bohemiancoding.com/sketch -->
    <title>Group 3</title>
    <desc>Created with Sketch.</desc>
    <defs></defs>
    <g id="Page-1" stroke="none" stroke-width="1" fill="none" fill-rule="evenodd">
        <g id="Desktop-HD" transform="translate(-418.000000, -13.000000)" stroke="#D8531E" stroke-width="5">
            <g id="Group-3" transform="translate(421.000000, 16.000000)">
                <g id="Spade" transform="translate(84.000000, 301.000000)">
                    <path d="M19.5883585,182.75031 C-5.77365699,157.336392 -5.77365699,116.135419 19.5883585,90.7237753 L65.5102756,44.7110767 L111.431058,90.7237753 C136.793074,116.135419 136.793074,157.336392 111.431058,182.75031 C86.0701772,208.16309 44.9503741,208.164227 19.5883585,182.75031 Z" id="Stroke-1"></path>
                    <path d="M107.893924,182.75031 C82.5330435,157.336392 82.5330435,116.135419 107.893924,90.7237753 L153.815841,44.7110767 L199.736624,90.7237753 C225.099774,116.135419 225.099774,157.336392 199.736624,182.75031 C174.375743,208.16309 133.25594,208.164227 107.893924,182.75031 Z" id="Stroke-3"></path>
                    <path d="M63.7409145,138.648885 C38.3800337,113.234967 38.3800337,72.0339945 63.7409145,46.6223507 L109.663966,0.609652055 L155.583614,46.6223507 C180.946764,72.0339945 180.946764,113.234967 155.583614,138.648885 C130.222733,164.061666 89.1029301,164.062803 63.7409145,138.648885 Z" id="Stroke-5"></path>
                    <path d="M95.683029,216.964274 L109.663853,201.810521 L123.644677,216.964274 C134.913532,229.181192 126.267003,248.989767 109.663853,248.989767 C93.0595679,248.989767 84.4130394,229.180055 95.683029,216.964274 Z" id="Stroke-7"></path>
                </g>
                <g id="Diamond">
                    <path d="M123.824414,89.2667075 C147.901992,65.2471075 186.938242,65.2471075 211.014492,89.2667075 L254.610195,132.759832 L211.014492,176.251632 C186.938242,200.272557 147.901992,200.272557 123.824414,176.251632 C99.7468359,152.232032 99.7468359,113.286307 123.824414,89.2667075 Z" id="Stroke-1"></path>
                    <path d="M131.497523,176.252825 C107.418617,200.272425 68.3836953,200.272425 44.3061172,176.252825 L0.710414062,132.7597 L44.3061172,89.2679 C68.3836953,65.246975 107.418617,65.246975 131.496195,89.2679 C155.573773,113.2875 155.575102,152.2319 131.497523,176.252825 Z" id="Stroke-3"></path>
                    <path d="M254.609797,132.760627 C253.418469,131.447552 252.252375,130.118577 251.014563,128.834652 L127.662297,0.8052025 L4.30471875,128.834652 C3.06823438,130.118577 1.90346875,131.446227 0.7108125,132.759302 C1.90479688,134.071052 3.0695625,135.400027 4.307375,136.683952 L127.659641,264.714727 L251.015891,136.683952 C252.253703,135.401352 253.418469,134.072377 254.609797,132.760627 Z" id="Stroke-5"></path>
                </g>
                <g id="Heart" transform="translate(380.000000, 385.000000)">
                    <path d="M199.737305,19.5902551 C225.09932,44.9560079 225.09932,86.0788955 199.737305,111.442379 L153.814253,157.367873 L107.894605,111.442379 C82.5325896,86.0788955 82.5325896,44.9560079 107.894605,19.5902551 C133.255486,-5.77436292 174.375289,-5.77436292 199.737305,19.5902551 Z" id="Stroke-1"></path>
                    <path d="M111.43242,19.5902551 C136.793301,44.9560079 136.793301,86.0788955 111.43242,111.442379 L65.5093679,157.367873 L19.5897202,111.442379 C-5.77343005,86.0788955 -5.77343005,44.9560079 19.5897202,19.5902551 C44.9494663,-5.77436292 86.0692694,-5.77436292 111.43242,19.5902551 Z" id="Stroke-3"></path>
                    <path d="M155.58543,63.6082112 C180.94631,88.973964 180.94631,130.096852 155.58543,155.460335 L109.662378,201.386964 L63.7427301,155.460335 C38.3795798,130.096852 38.3795798,88.973964 63.7427301,63.6082112 C89.1024762,38.2435933 130.222279,38.2435933 155.58543,63.6082112 Z" id="Stroke-5"></path>
                </g>
                <g id="Clubs" transform="translate(275.000000, 95.000000)">
                    <path d="M246.931347,195.948977 C222.15788,220.704358 181.995205,220.704358 157.222847,195.948977 L112.369705,151.122353 L157.222847,106.299053 C181.995205,81.5414565 222.15788,81.5414565 246.931347,106.299053 C271.702597,131.054434 271.703705,171.192488 246.931347,195.948977 Z" id="Stroke-1"></path>
                    <path d="M19.1331583,106.297391 C43.906625,81.5420103 84.0693,81.5420103 108.841658,106.297391 L153.6948,151.124015 L108.841658,195.947315 C84.0693,220.704912 43.906625,220.704912 19.1331583,195.947315 C-5.6392,171.191934 -5.6392,131.05388 19.1331583,106.297391 Z" id="Stroke-3"></path>
                    <path d="M177.886281,19.1213444 C202.658639,43.8789408 202.658639,84.015887 177.886281,108.772376 L133.032031,153.596784 L88.1788892,108.772376 C63.4065308,84.015887 63.4065308,43.8789408 88.1788892,19.1213444 C112.950139,-5.63514439 153.113923,-5.63514439 177.886281,19.1213444 Z" id="Stroke-5"></path>
                    <path d="M119.377253,215.165798 L133.033028,200.402287 L146.688803,215.165798 C157.695662,227.067211 149.250162,246.364224 133.033028,246.364224 C116.814787,246.364224 108.369287,227.067211 119.377253,215.165798 Z" id="Stroke-7"></path>
                </g>
            </g>
        </g>
    </g>
</svg>