<svg width="100" height="100" viewBox="0 0 100 100" fill="none" xmlns="http://www.w3.org/2000/svg">
<circle cx="50" cy="50" r="50" fill="#A83F2F"/>
<path d="M56.8958 84.6608L59.7422 99.0485C56.5796 99.6742 53.3205 100 50 100C46.6795 100 43.4204 99.6742 40.2578 99.0485L43.1042 84.6608V84.6602C45.3345 85.1014 47.6402 85.3333 50 85.3333C52.3597 85.3333 54.6653 85.1014 56.8955 84.6602L56.8958 84.6608ZM20.6185 69.6315C23.198 73.4845 26.5152 76.8016 30.3682 79.3812V79.3818L22.209 91.5697C16.7627 87.9235 12.0765 83.2373 8.43034 77.791L20.6182 69.6318L20.6185 69.6315ZM79.3818 69.6318L91.5697 77.791C87.9235 83.2373 83.2373 87.9235 77.791 91.5697L69.6318 79.3818L69.6315 79.3812C73.4845 76.8016 76.8016 73.4845 79.3812 69.6315L79.3818 69.6318ZM14.6667 50C14.6667 52.3597 14.8983 54.6653 15.3395 56.8955L15.3392 56.8958L0.951497 59.7422C0.325835 56.5796 0 53.3205 0 50C0 46.6795 0.325835 43.4204 0.951497 40.2578L15.3392 43.1042C14.898 45.3345 14.6667 47.6402 14.6667 50ZM85.3333 50C85.3333 47.6402 85.1014 45.3345 84.6602 43.1042H84.6608L99.0485 40.2578C99.6742 43.4204 100 46.6795 100 50C100 53.3205 99.6742 56.5796 99.0485 59.7422L84.6608 56.8958L84.6602 56.8955C85.1014 54.6653 85.3333 52.3597 85.3333 50ZM30.3682 20.6182C26.5152 23.1977 23.198 26.5152 20.6185 30.3682L8.43034 22.209C12.0765 16.7627 16.7627 12.0765 22.209 8.43034L30.3682 20.6182ZM77.791 8.43034C83.2373 12.0765 87.9235 16.7627 91.5697 22.209L79.3818 30.3682H79.3812C76.8016 26.5152 73.4845 23.198 69.6315 20.6185L69.6318 20.6182L77.791 8.43034ZM50 0C53.3205 0 56.5796 0.325835 59.7422 0.951497L56.8958 15.3392L56.8955 15.3395C54.6653 14.8983 52.3597 14.6667 50 14.6667C47.6402 14.6667 45.3345 14.8983 43.1042 15.3395L40.2578 0.951497C43.4204 0.325835 46.6795 0 50 0Z" fill="white"/>
<path d="M80 50C80 66.5685 66.5685 80 50 80C33.4315 80 20 66.5685 20 50C20 33.4315 33.4315 20 50 20C66.5685 20 80 33.4315 80 50Z" fill="white"/>
<g clip-path="url(#clip0_32_443)">
<path d="M50 24C35.6395 24 24 35.6395 24 50C24 64.3605 35.6395 76 50 76C64.3605 76 76 64.3605 76 50C76 35.6395 64.3605 24 50 24ZM40.2349 62.093L35.2163 47.8837L37.786 37.907L46.2814 62.093H40.2349ZM51.1186 62.093L42.6233 37.907H48.6698L53.6581 52.1163L51.1186 62.093ZM62.9698 62.093H57.3465V37.907H62.9698V62.093Z" fill="#A83F2F"/>
</g>
<defs>
<clipPath id="clip0_32_443">
<rect width="52" height="52" fill="white" transform="translate(24 24)"/>
</clipPath>
</defs>
</svg>
