<svg width="888" height="808" viewBox="0 0 888 808" fill="none" xmlns="http://www.w3.org/2000/svg">
<rect y="244.931" width="415.97" height="582.358" rx="41.597" transform="rotate(-15 0 244.931)" fill="url(#paint0_linear_40_656)"/>
<path d="M69.2443 266.596L66.5183 296.832L75.8314 294.337L76.2966 296.073L55.9973 301.512L55.532 299.776L64.7188 297.314L67.3761 267.706L48.308 272.815L47.8512 271.111L68.1505 265.671L69.2443 266.596ZM64.3735 300.824L66.2046 300.334L65.1407 312.022L66.877 311.556L67.3338 313.261L61.7775 314.75L61.3207 313.045L63.3096 312.512L64.3735 300.824Z" fill="#050C0C"/>
<path fill-rule="evenodd" clip-rule="evenodd" d="M72.3994 357.471C69.0587 355.537 67.9124 351.259 69.8389 347.915L73.3271 341.859L79.3757 345.359C82.7163 347.292 83.8626 351.571 81.9362 354.915C80.0098 358.26 75.74 359.404 72.3994 357.471Z" fill="#050C0C"/>
<path fill-rule="evenodd" clip-rule="evenodd" d="M81.569 355.014C78.2284 353.08 77.0821 348.802 79.0085 345.458L82.4967 339.402L88.5453 342.902C91.886 344.835 93.0323 349.114 91.1058 352.458C89.1794 355.803 84.9096 356.947 81.569 355.014Z" fill="#050C0C"/>
<path fill-rule="evenodd" clip-rule="evenodd" d="M75.7572 351.663C72.4167 349.729 71.2703 345.451 73.1967 342.107L76.6851 336.051L82.7335 339.551C86.0742 341.484 87.2206 345.763 85.294 349.107C83.3676 352.452 79.0979 353.596 75.7572 351.663Z" fill="#050C0C"/>
<path fill-rule="evenodd" clip-rule="evenodd" d="M81.253 358.906L82.2831 356.944L84.1565 358.128C85.6665 359.083 85.3198 361.381 83.5958 361.843C81.8716 362.305 80.4226 360.488 81.253 358.906Z" fill="#050C0C"/>
<path d="M481.37 679.444L480.904 677.708L482.925 677.167L474.44 645.502C473.651 642.556 474.019 639.761 475.544 637.12C477.043 634.462 479.265 632.739 482.212 631.949C485.158 631.16 487.955 631.538 490.603 633.085C493.224 634.616 494.929 636.854 495.718 639.801L496.048 641.032L498.069 640.491L498.534 642.227L492.82 643.758L492.355 642.022L494.375 641.48L494.045 640.249C493.385 637.787 491.948 635.916 489.733 634.637C487.491 633.343 485.139 633.026 482.677 633.686C480.215 634.345 478.347 635.793 477.074 638.029C475.774 640.25 475.454 642.591 476.114 645.054L484.598 676.718L486.618 676.177L487.084 677.913L481.37 679.444Z" fill="#050C0C"/>
<path fill-rule="evenodd" clip-rule="evenodd" d="M480.059 586.892C483.399 588.825 484.546 593.104 482.619 596.448L479.131 602.503L473.082 599.003C469.742 597.07 468.595 592.792 470.522 589.447C472.448 586.103 476.718 584.959 480.059 586.892Z" fill="#050C0C"/>
<path fill-rule="evenodd" clip-rule="evenodd" d="M470.889 589.349C474.23 591.282 475.376 595.56 473.45 598.905L469.961 604.96L463.913 601.46C460.572 599.527 459.426 595.249 461.352 591.904C463.279 588.56 467.548 587.416 470.889 589.349Z" fill="#050C0C"/>
<path fill-rule="evenodd" clip-rule="evenodd" d="M476.701 592.7C480.041 594.633 481.188 598.911 479.261 602.256L475.773 608.311L469.725 604.811C466.384 602.878 465.237 598.6 467.164 595.255C469.09 591.911 473.36 590.767 476.701 592.7Z" fill="#050C0C"/>
<path fill-rule="evenodd" clip-rule="evenodd" d="M471.205 585.456L470.175 587.419L468.302 586.234C466.791 585.279 467.138 582.982 468.862 582.52C470.586 582.058 472.035 583.874 471.205 585.456Z" fill="#050C0C"/>
<path fill-rule="evenodd" clip-rule="evenodd" d="M201.495 554.801C169.179 536.099 158.09 494.713 176.726 462.361L210.47 403.782L268.981 437.641C301.297 456.341 312.386 497.727 293.75 530.081C275.115 562.434 233.811 573.503 201.495 554.801Z" stroke="#050C0C" stroke-width="2.07985"/>
<path fill-rule="evenodd" clip-rule="evenodd" d="M290.197 531.033C257.882 512.331 246.793 470.945 265.428 438.593L299.172 380.014L357.683 413.874C390 432.573 401.089 473.959 382.452 506.314C363.817 538.666 322.513 549.735 290.197 531.033Z" stroke="#050C0C" stroke-width="2.07985"/>
<path fill-rule="evenodd" clip-rule="evenodd" d="M233.976 498.618C201.661 479.916 190.572 438.53 209.207 406.178L242.952 347.598L301.462 381.458C333.779 400.157 344.868 441.543 326.231 473.898C307.596 506.251 266.292 517.32 233.976 498.618Z" stroke="#050C0C" stroke-width="2.07985"/>
<path fill-rule="evenodd" clip-rule="evenodd" d="M287.14 568.687L297.105 549.703L315.228 561.162C329.835 570.4 326.481 592.625 309.804 597.094C293.125 601.563 279.108 583.991 287.14 568.687Z" stroke="#050C0C" stroke-width="2.07985"/>
<rect x="107.112" y="155.168" width="415.97" height="582.358" rx="41.597" transform="rotate(-7.5 107.112 155.168)" fill="url(#paint1_linear_40_656)"/>
<path d="M174.983 184.263L175.218 186.045L173.144 186.318L177.423 218.819C177.821 221.843 177.092 224.565 175.235 226.986C173.402 229.425 170.974 230.843 167.949 231.241C164.925 231.639 162.201 230.899 159.778 229.02C157.379 227.161 155.981 224.718 155.583 221.694L155.417 220.43L153.343 220.703L153.108 218.921L158.973 218.149L159.208 219.931L157.134 220.204L157.3 221.468C157.633 223.995 158.814 226.038 160.843 227.595C162.897 229.17 165.187 229.792 167.715 229.459C170.242 229.126 172.283 227.935 173.837 225.884C175.416 223.852 176.038 221.572 175.706 219.045L171.427 186.544L169.353 186.817L169.118 185.035L174.983 184.263Z" fill="#A83F2F"/>
<path fill-rule="evenodd" clip-rule="evenodd" d="M171.952 264.149C174.181 261.251 178.342 260.703 181.245 262.926L186.502 266.949L182.466 272.197C180.236 275.095 176.076 275.642 173.173 273.42C170.269 271.198 169.723 267.047 171.952 264.149Z" fill="#A83F2F"/>
<path fill-rule="evenodd" clip-rule="evenodd" d="M173.99 273.313C171.761 276.21 167.601 276.758 164.697 274.536L159.441 270.512L163.477 265.265C165.706 262.367 169.867 261.819 172.77 264.042C175.673 266.264 176.22 270.414 173.99 273.313Z" fill="#A83F2F"/>
<path fill-rule="evenodd" clip-rule="evenodd" d="M186.502 266.95C186.356 266.826 186.213 266.701 186.063 266.582L171.12 254.667L159.769 270.043C159.655 270.198 159.549 270.355 159.441 270.512C159.586 270.635 159.729 270.76 159.879 270.88L174.823 282.795L186.174 267.418C186.288 267.264 186.393 267.106 186.502 266.95Z" fill="#A83F2F"/>
<path d="M527.648 648.795L527.414 647.013L529.488 646.74L525.209 614.239C524.811 611.214 525.54 608.492 527.397 606.072C529.23 603.633 531.658 602.214 534.683 601.816C537.707 601.418 540.431 602.158 542.854 604.037C545.252 605.897 546.651 608.339 547.049 611.363L547.215 612.627L549.289 612.354L549.524 614.136L543.659 614.908L543.424 613.126L545.498 612.853L545.332 611.589C544.999 609.062 543.818 607.02 541.789 605.463C539.735 603.887 537.445 603.266 534.917 603.598C532.39 603.931 530.349 605.123 528.795 607.173C527.216 609.205 526.593 611.485 526.926 614.013L531.205 646.514L533.279 646.241L533.513 648.023L527.648 648.795Z" fill="#050C0C"/>
<path fill-rule="evenodd" clip-rule="evenodd" d="M538.429 556.863C541.489 559.216 542.067 563.607 539.72 566.672L535.472 572.22L529.932 567.96C526.872 565.608 526.294 561.216 528.64 558.152C530.987 555.087 535.369 554.51 538.429 556.863Z" fill="#050C0C"/>
<path fill-rule="evenodd" clip-rule="evenodd" d="M529.017 558.102C532.077 560.455 532.655 564.846 530.309 567.911L526.06 573.459L520.52 569.199C517.46 566.847 516.882 562.456 519.229 559.391C521.575 556.327 525.958 555.75 529.017 558.102Z" fill="#050C0C"/>
<path fill-rule="evenodd" clip-rule="evenodd" d="M534.342 562.183C537.402 564.536 537.98 568.927 535.633 571.991L531.384 577.54L525.845 573.28C522.785 570.928 522.207 566.536 524.553 563.472C526.9 560.407 531.282 559.83 534.342 562.183Z" fill="#050C0C"/>
<path fill-rule="evenodd" clip-rule="evenodd" d="M529.839 554.284L528.561 556.096L526.858 554.677C525.486 553.533 526.129 551.3 527.899 551.067C529.669 550.834 530.868 552.824 529.839 554.284Z" fill="#050C0C"/>
<path fill-rule="evenodd" clip-rule="evenodd" d="M266.437 488.687C236.839 465.927 231.246 423.448 253.946 393.805L295.047 340.131L348.638 381.338C378.237 404.096 383.829 446.575 361.13 476.22C338.432 505.864 296.036 511.447 266.437 488.687Z" stroke="#050C0C" stroke-width="2.07985"/>
<path fill-rule="evenodd" clip-rule="evenodd" d="M357.483 476.7C327.886 453.94 322.293 411.461 344.992 381.818L386.093 328.145L439.684 369.352C469.283 392.109 474.876 434.589 452.175 464.234C429.477 493.878 387.082 499.46 357.483 476.7Z" stroke="#050C0C" stroke-width="2.07985"/>
<path fill-rule="evenodd" clip-rule="evenodd" d="M305.974 437.224C276.376 414.464 270.784 371.984 293.482 342.342L334.585 288.668L388.175 329.875C417.774 352.633 423.367 395.112 400.666 424.757C377.968 454.401 335.572 459.984 305.974 437.224Z" stroke="#050C0C" stroke-width="2.07985"/>
<path fill-rule="evenodd" clip-rule="evenodd" d="M349.537 513.634L361.895 496.112L378.367 509.838C391.643 520.905 385.417 542.501 368.299 544.755C351.179 547.009 339.576 527.758 349.537 513.634Z" stroke="#050C0C" stroke-width="2.07985"/>
<rect x="226.704" y="77.9944" width="415.97" height="582.358" rx="41.597" fill="url(#paint2_linear_40_656)"/>
<path d="M284.713 148.84V159.528H286.772V161.293H284.713V161.423H282.915V161.293H280.889V159.528H282.915V148.84H284.713ZM284.713 145.343H288.243V147.141H266.77L265.887 146.16L268.143 117.431H266.182V115.667H272.065V117.431H269.94L267.718 145.343H282.915V117.431H280.889V115.667H286.772V117.431H284.713V145.343Z" fill="#050C0C"/>
<path fill-rule="evenodd" clip-rule="evenodd" d="M289.477 206.97C286.814 209.631 282.497 209.631 279.833 206.97L275.012 202.151L279.833 197.332C282.497 194.671 286.814 194.671 289.477 197.332C292.14 199.994 292.14 204.308 289.477 206.97Z" fill="#050C0C"/>
<path fill-rule="evenodd" clip-rule="evenodd" d="M264.989 197.332C267.652 194.671 271.969 194.671 274.633 197.332L279.454 202.151L274.633 206.97C271.969 209.631 267.652 209.631 264.989 206.97C262.326 204.308 262.326 199.993 264.989 197.332Z" fill="#050C0C"/>
<path fill-rule="evenodd" clip-rule="evenodd" d="M282.055 187.96C284.718 190.622 284.718 194.937 282.055 197.598L277.233 202.417L272.411 197.598C269.748 194.937 269.748 190.622 272.411 187.96C275.074 185.299 279.392 185.299 282.055 187.96Z" fill="#050C0C"/>
<path fill-rule="evenodd" clip-rule="evenodd" d="M275.765 209.036L277.233 207.448L278.701 209.036C279.885 210.315 278.977 212.389 277.233 212.389C275.49 212.389 274.582 210.315 275.765 209.036Z" fill="#050C0C"/>
<path d="M579.211 622.289L579.211 620.492L581.303 620.492L581.303 587.71C581.303 584.66 582.381 582.056 584.538 579.899C586.674 577.72 589.267 576.631 592.317 576.631C595.367 576.631 597.971 577.72 600.128 579.899C602.264 582.056 603.331 584.66 603.331 587.71L603.331 588.985L605.423 588.985L605.423 590.783L599.507 590.783L599.507 588.985L601.599 588.985L601.599 587.71C601.599 585.161 600.695 582.982 598.886 581.174C597.056 579.344 594.866 578.428 592.317 578.428C589.768 578.428 587.589 579.344 585.78 581.174C583.95 582.982 583.035 585.161 583.035 587.71L583.035 620.492L585.127 620.492L585.127 622.289L579.211 622.289Z" fill="#050C0C"/>
<path fill-rule="evenodd" clip-rule="evenodd" d="M601.899 532.551C604.625 535.283 604.625 539.713 601.899 542.444L596.962 547.391L592.026 542.444C589.299 539.713 589.299 535.283 592.026 532.551C594.752 529.82 599.172 529.819 601.899 532.551Z" fill="#050C0C"/>
<path fill-rule="evenodd" clip-rule="evenodd" d="M592.406 532.551C595.132 535.283 595.132 539.713 592.406 542.444L587.469 547.391L582.533 542.444C579.806 539.713 579.806 535.283 582.533 532.551C585.259 529.82 589.679 529.819 592.406 532.551Z" fill="#050C0C"/>
<path fill-rule="evenodd" clip-rule="evenodd" d="M597.153 537.292C599.879 540.024 599.879 544.454 597.153 547.185L592.216 552.132L587.279 547.185C584.553 544.454 584.553 540.024 587.279 537.292C590.006 534.561 594.426 534.56 597.153 537.292Z" fill="#050C0C"/>
<path fill-rule="evenodd" clip-rule="evenodd" d="M593.719 528.873L592.216 530.502L590.713 528.873C589.501 527.56 590.431 525.431 592.216 525.431C594.001 525.431 594.93 527.56 593.719 528.873Z" fill="#050C0C"/>
<path fill-rule="evenodd" clip-rule="evenodd" d="M341.133 429.456C314.758 403.028 314.758 360.182 341.133 333.756L388.888 285.906L436.642 333.756C463.017 360.182 463.017 403.028 436.642 429.456C410.269 455.884 367.507 455.885 341.133 429.456Z" stroke="#050C0C" stroke-width="2.07985"/>
<path fill-rule="evenodd" clip-rule="evenodd" d="M432.964 429.456C406.591 403.028 406.591 360.182 432.964 333.756L480.72 285.906L528.474 333.756C554.85 360.182 554.85 403.028 528.474 429.456C502.1 455.884 459.339 455.885 432.964 429.456Z" stroke="#050C0C" stroke-width="2.07985"/>
<path fill-rule="evenodd" clip-rule="evenodd" d="M387.048 383.594C360.675 357.166 360.675 314.32 387.048 287.893L434.805 240.044L482.558 287.893C508.933 314.32 508.933 357.166 482.558 383.594C456.184 410.022 413.423 410.023 387.048 383.594Z" stroke="#050C0C" stroke-width="2.07985"/>
<path fill-rule="evenodd" clip-rule="evenodd" d="M420.266 465.036L434.805 449.278L449.344 465.036C461.062 477.741 452.071 498.34 434.805 498.34C417.537 498.34 408.546 477.74 420.266 465.036Z" stroke="#050C0C" stroke-width="2.07985"/>
<rect x="352.633" y="29.1179" width="415.97" height="582.358" rx="41.597" transform="rotate(7.5 352.633 29.1179)" fill="url(#paint3_linear_40_656)"/>
<path d="M405.235 99.7864C405.113 100.715 404.792 101.563 404.274 102.33C403.78 103.078 403.15 103.688 402.385 104.158C403.006 104.614 403.476 105.214 403.796 105.959C404.137 106.707 404.255 107.481 404.15 108.28L403.207 115.442C403.102 116.241 402.81 116.95 402.333 117.568C401.856 118.187 401.257 118.646 400.537 118.947C399.816 119.248 399.056 119.345 398.256 119.24L385.1 117.508C383.891 117.349 382.911 116.78 382.16 115.803C381.429 114.849 381.143 113.768 381.302 112.558L382.245 105.397C382.316 104.857 382.47 104.349 382.709 103.875C382.968 103.404 383.297 102.997 383.694 102.653C384.09 102.31 384.531 102.049 385.016 101.872C384.788 101.6 384.573 101.319 384.369 101.028C384.166 100.738 383.987 100.428 383.832 100.1C383.677 99.7723 383.557 99.4378 383.47 99.0967C383.383 98.7556 383.331 98.3971 383.314 98.0213C383.298 97.6456 383.314 97.2741 383.362 96.9068L385.913 77.5294C386.056 76.4492 386.444 75.5005 387.079 74.683C387.717 73.844 388.524 73.2249 389.5 72.8259C390.478 72.4053 391.507 72.2661 392.587 72.4083L402.665 73.735C403.464 73.8403 404.21 74.1033 404.902 74.524C405.596 74.9231 406.169 75.416 406.619 76.0028C407.069 76.5895 407.397 77.27 407.603 78.0443C407.83 78.8214 407.891 79.6097 407.786 80.4089L405.235 99.7864ZM402.367 108.046C402.461 107.333 402.282 106.694 401.829 106.129C401.4 105.545 400.829 105.206 400.116 105.112L398.561 104.907L388.483 103.581L386.928 103.376C386.215 103.282 385.565 103.46 384.979 103.91C384.395 104.339 384.056 104.91 383.962 105.623L383.019 112.784C382.925 113.497 383.104 114.147 383.554 114.733C384.004 115.32 384.586 115.66 385.298 115.754L398.454 117.486C398.93 117.549 399.377 117.487 399.797 117.3C400.239 117.117 400.606 116.835 400.897 116.456C401.186 116.099 401.362 115.682 401.425 115.207L402.367 108.046ZM398.796 103.125C399.941 103.276 400.965 103.004 401.87 102.31C402.796 101.619 403.334 100.701 403.485 99.556L406.036 80.1786C406.187 79.0336 405.904 78.0075 405.189 77.1001C404.498 76.174 403.579 75.6356 402.435 75.4848L392.357 74.1581C391.795 74.0842 391.241 74.1211 390.694 74.2688C390.147 74.4166 389.665 74.6607 389.246 75.0012C388.831 75.3201 388.481 75.7246 388.196 76.2146C387.915 76.683 387.737 77.1981 387.663 77.7597L385.112 97.1372C384.961 98.2821 385.233 99.3068 385.927 100.211C386.643 101.119 387.573 101.648 388.718 101.799L398.796 103.125Z" fill="#A83F2F"/>
<path fill-rule="evenodd" clip-rule="evenodd" d="M397.607 148.497C399.954 151.557 399.377 155.94 396.318 158.287L390.779 162.537L386.53 156.998C384.182 153.939 384.759 149.556 387.819 147.209C390.877 144.861 395.26 145.438 397.607 148.497Z" fill="#A83F2F"/>
<path fill-rule="evenodd" clip-rule="evenodd" d="M388.195 147.258C390.543 150.317 389.966 154.7 386.907 157.048L381.368 161.298L377.118 155.759C374.771 152.7 375.348 148.317 378.407 145.969C381.466 143.622 385.848 144.199 388.195 147.258Z" fill="#A83F2F"/>
<path fill-rule="evenodd" clip-rule="evenodd" d="M392.284 152.569C394.631 155.629 394.054 160.012 390.995 162.359L385.456 166.61L381.206 161.07C378.859 158.011 379.436 153.628 382.495 151.281C385.554 148.933 389.937 149.51 392.284 152.569Z" fill="#A83F2F"/>
<path d="M631.08 614.768L631.314 612.986L633.388 613.259L637.667 580.758C638.065 577.733 639.474 575.293 641.895 573.436C644.296 571.554 647.009 570.812 650.033 571.21C653.058 571.609 655.497 573.029 657.351 575.47C659.187 577.888 659.905 580.609 659.507 583.633L659.341 584.897L661.415 585.17L661.18 586.952L655.315 586.18L655.55 584.398L657.623 584.671L657.79 583.407C658.123 580.879 657.51 578.601 655.954 576.572C654.378 574.519 652.326 573.325 649.799 572.993C647.271 572.66 644.992 573.283 642.96 574.861C640.909 576.415 639.717 578.456 639.385 580.984L635.106 613.485L637.18 613.758L636.945 615.54L631.08 614.768Z" fill="#050C0C"/>
<path fill-rule="evenodd" clip-rule="evenodd" d="M665.287 528.759C667.633 531.823 667.055 536.215 663.995 538.567L658.455 542.827L654.207 537.279C651.86 534.214 652.438 529.823 655.498 527.47C658.558 525.118 662.94 525.694 665.287 528.759Z" fill="#050C0C"/>
<path fill-rule="evenodd" clip-rule="evenodd" d="M655.875 527.52C658.221 530.584 657.643 534.976 654.584 537.328L649.044 541.588L644.795 536.039C642.448 532.975 643.026 528.584 646.086 526.231C649.146 523.878 653.528 524.455 655.875 527.52Z" fill="#050C0C"/>
<path fill-rule="evenodd" clip-rule="evenodd" d="M659.962 532.84C662.309 535.904 661.73 540.296 658.671 542.648L653.131 546.908L648.882 541.359C646.535 538.295 647.114 533.904 650.173 531.551C653.233 529.198 657.616 529.775 659.962 532.84Z" fill="#050C0C"/>
<path fill-rule="evenodd" clip-rule="evenodd" d="M657.657 524.045L655.954 525.464L654.676 523.652C653.647 522.192 654.846 520.202 656.616 520.435C658.386 520.668 659.029 522.901 657.657 524.045Z" fill="#050C0C"/>
<path fill-rule="evenodd" clip-rule="evenodd" d="M420.208 392.509C397.509 362.864 403.102 320.385 432.7 297.627L486.292 256.42L527.392 310.094C550.092 339.736 544.499 382.216 514.901 404.976C485.304 427.734 442.908 422.154 420.208 392.509Z" stroke="#050C0C" stroke-width="2.07985"/>
<path fill-rule="evenodd" clip-rule="evenodd" d="M511.254 404.495C488.556 374.851 494.148 332.371 523.745 309.613L577.338 268.406L618.438 322.08C641.139 351.723 635.546 394.202 605.946 416.962C576.349 439.721 533.953 434.14 511.254 404.495Z" stroke="#050C0C" stroke-width="2.07985"/>
<path fill-rule="evenodd" clip-rule="evenodd" d="M471.717 353.032C449.019 323.388 454.611 280.908 484.208 258.15L537.802 216.943L578.901 270.617C601.602 300.26 596.009 342.739 566.409 365.499C536.812 388.258 494.416 382.677 471.717 353.032Z" stroke="#050C0C" stroke-width="2.07985"/>
<path fill-rule="evenodd" clip-rule="evenodd" d="M494.02 438.114L510.492 424.387L522.849 441.909C532.81 456.035 521.206 475.284 504.088 473.031C486.968 470.777 480.742 449.179 494.02 438.114Z" stroke="#050C0C" stroke-width="2.07985"/>
<rect x="485.582" width="415.97" height="582.358" rx="41.597" transform="rotate(15 485.582 0)" fill="url(#paint4_linear_40_656)"/>
<path d="M531.494 83.9215L527.2 82.7711L525.401 82.2889L509.048 77.9071L509.073 77.8124L502.131 88.9455L504.057 89.4615L503.592 91.1978L497.877 89.6667L498.343 87.9304L500.3 88.4549L523.651 51.0628L522.072 50.6398L522.537 48.9035L528.22 50.4261L527.755 52.1625L526.208 51.748L527.16 80.8994L531.959 82.1852L531.494 83.9215ZM510.05 76.3146L525.329 80.4088L524.465 53.0744L510.05 76.3146ZM527.671 95.7889L529.565 96.2964L529.1 98.0328L523.386 96.5017L523.851 94.7653L525.871 95.3067L525.521 84.1144L527.289 84.5881L527.671 95.7889Z" fill="#050C0C"/>
<path fill-rule="evenodd" clip-rule="evenodd" d="M492.011 133.662C490.085 130.317 491.231 126.039 494.572 124.106L500.621 120.606L504.109 126.661C506.035 130.005 504.889 134.284 501.548 136.217C498.208 138.15 493.938 137.006 492.011 133.662Z" fill="#050C0C"/>
<path fill-rule="evenodd" clip-rule="evenodd" d="M501.181 136.119C499.254 132.774 500.401 128.496 503.741 126.563L509.79 123.063L513.278 129.118C515.205 132.462 514.058 136.741 510.718 138.674C507.377 140.607 503.107 139.463 501.181 136.119Z" fill="#050C0C"/>
<path fill-rule="evenodd" clip-rule="evenodd" d="M497.823 130.311C495.897 126.966 497.043 122.688 500.384 120.755L506.432 117.255L509.92 123.31C511.847 126.655 510.701 130.933 507.36 132.866C504.019 134.799 499.75 133.655 497.823 130.311Z" fill="#050C0C"/>
<path fill-rule="evenodd" clip-rule="evenodd" d="M498.961 139.332L500.834 138.147L501.865 140.11C502.695 141.692 501.246 143.508 499.522 143.046C497.798 142.584 497.451 140.286 498.961 139.332Z" fill="#050C0C"/>
<path d="M690.862 585.916L695.155 587.066L696.955 587.549L713.308 591.93L713.282 592.025L720.224 580.892L718.299 580.376L718.764 578.64L724.478 580.171L724.013 581.907L722.055 581.383L698.705 618.775L700.283 619.198L699.818 620.934L694.135 619.411L694.601 617.675L696.148 618.09L695.195 588.938L690.397 587.652L690.862 585.916ZM712.306 593.523L697.026 589.429L697.89 616.763L712.306 593.523ZM694.685 574.049L692.79 573.541L693.256 571.805L698.97 573.336L698.504 575.072L696.484 574.531L696.835 585.723L695.067 585.249L694.685 574.049Z" fill="#050C0C"/>
<path fill-rule="evenodd" clip-rule="evenodd" d="M730.344 536.176C732.271 539.521 731.124 543.799 727.784 545.732L721.735 549.232L718.247 543.176C716.32 539.832 717.467 535.554 720.807 533.621C724.148 531.687 728.418 532.831 730.344 536.176Z" fill="#050C0C"/>
<path fill-rule="evenodd" clip-rule="evenodd" d="M721.175 533.719C723.101 537.063 721.955 541.342 718.614 543.275L712.566 546.775L709.077 540.719C707.151 537.375 708.297 533.097 711.638 531.164C714.978 529.23 719.248 530.374 721.175 533.719Z" fill="#050C0C"/>
<path fill-rule="evenodd" clip-rule="evenodd" d="M724.532 539.527C726.459 542.871 725.312 547.15 721.972 549.083L715.923 552.583L712.435 546.527C710.508 543.183 711.655 538.905 714.996 536.972C718.336 535.038 722.606 536.182 724.532 539.527Z" fill="#050C0C"/>
<path fill-rule="evenodd" clip-rule="evenodd" d="M723.394 530.506L721.521 531.691L720.491 529.728C719.661 528.146 721.11 526.33 722.834 526.792C724.558 527.254 724.905 529.551 723.394 530.506Z" fill="#050C0C"/>
<path fill-rule="evenodd" clip-rule="evenodd" d="M505.146 369.103C486.511 336.748 497.6 295.362 529.916 276.663L588.428 242.804L622.171 301.383C640.807 333.735 629.718 375.121 597.402 393.822C565.087 412.523 523.782 401.457 505.146 369.103Z" stroke="#050C0C" stroke-width="2.07985"/>
<path fill-rule="evenodd" clip-rule="evenodd" d="M593.849 392.87C575.214 360.516 586.304 319.13 618.618 300.43L677.13 266.571L710.873 325.15C729.51 357.502 718.421 398.888 686.104 417.59C653.789 436.291 612.484 425.225 593.849 392.87Z" stroke="#050C0C" stroke-width="2.07985"/>
<path fill-rule="evenodd" clip-rule="evenodd" d="M561.368 336.687C542.733 304.333 553.822 262.947 586.137 244.247L644.65 210.388L678.392 268.967C697.029 301.319 685.94 342.705 653.623 361.407C621.308 380.108 580.003 369.041 561.368 336.687Z" stroke="#050C0C" stroke-width="2.07985"/>
<path fill-rule="evenodd" clip-rule="evenodd" d="M572.374 423.951L590.496 412.493L600.461 431.477C608.493 446.782 594.476 464.352 577.798 459.884C561.119 455.415 557.766 433.189 572.374 423.951Z" stroke="#050C0C" stroke-width="2.07985"/>
<defs>
<linearGradient id="paint0_linear_40_656" x1="415.97" y1="514.272" x2="1.18971e-06" y2="514.272" gradientUnits="userSpaceOnUse">
<stop stop-color="#E0E0E0"/>
<stop offset="1" stop-color="white"/>
</linearGradient>
<linearGradient id="paint1_linear_40_656" x1="523.083" y1="424.508" x2="107.112" y2="424.508" gradientUnits="userSpaceOnUse">
<stop stop-color="#E0E0E0"/>
<stop offset="1" stop-color="white"/>
</linearGradient>
<linearGradient id="paint2_linear_40_656" x1="642.674" y1="347.335" x2="226.704" y2="347.335" gradientUnits="userSpaceOnUse">
<stop stop-color="#E0E0E0"/>
<stop offset="1" stop-color="white"/>
</linearGradient>
<linearGradient id="paint3_linear_40_656" x1="768.604" y1="298.459" x2="352.633" y2="298.459" gradientUnits="userSpaceOnUse">
<stop stop-color="#E0E0E0"/>
<stop offset="1" stop-color="white"/>
</linearGradient>
<linearGradient id="paint4_linear_40_656" x1="901.552" y1="269.341" x2="485.582" y2="269.341" gradientUnits="userSpaceOnUse">
<stop stop-color="#E0E0E0"/>
<stop offset="1" stop-color="white"/>
</linearGradient>
</defs>
</svg>
