<svg width="200" height="200" viewBox="0 0 200 200" fill="none" xmlns="http://www.w3.org/2000/svg">
<circle cx="100" cy="100" r="100" transform="rotate(90 100 100)" fill="#A83F2F"/>
<path d="M30.6784 113.792L1.90299 119.484C0.651671 113.159 -1.29904e-06 106.641 -1.58933e-06 100C-1.87961e-06 93.359 0.65167 86.8409 1.90299 80.5156L30.6784 86.2083L30.6797 86.2083C29.7972 90.669 29.3333 95.2803 29.3333 100C29.3333 104.719 29.7973 109.331 30.6797 113.791L30.6784 113.792ZM60.737 41.237C53.031 46.396 46.3968 53.0304 41.2376 60.7363L41.2363 60.7363L16.8607 44.418C24.153 33.5255 33.5255 24.153 44.418 16.8607L60.7363 41.2363L60.737 41.237ZM60.7363 158.764L44.418 183.139C33.5255 175.847 24.153 166.475 16.8607 155.582L41.2363 139.264L41.2376 139.263C46.3967 146.969 53.031 153.603 60.737 158.762L60.7363 158.764ZM100 29.3333C95.2806 29.3333 90.6694 29.7967 86.209 30.679L86.2083 30.6784L80.5156 1.903C86.8409 0.651675 93.359 4.66143e-06 100 4.37114e-06C106.641 4.08085e-06 113.159 0.651674 119.484 1.903L113.792 30.6784C109.331 29.7959 104.72 29.3333 100 29.3333ZM100 170.667C104.72 170.667 109.331 170.203 113.792 169.32L113.792 169.322L119.484 198.097C113.159 199.348 106.641 200 100 200C93.359 200 86.8409 199.348 80.5156 198.097L86.2083 169.322L86.209 169.32C90.6694 170.203 95.2806 170.667 100 170.667ZM158.764 60.7363C153.605 53.0304 146.97 46.396 139.264 41.237L155.582 16.8607C166.475 24.153 175.847 33.5255 183.139 44.418L158.764 60.7363ZM183.139 155.582C175.847 166.475 166.475 175.847 155.582 183.139L139.264 158.764L139.264 158.762C146.97 153.603 153.604 146.969 158.763 139.263L158.764 139.264L183.139 155.582ZM200 100C200 106.641 199.348 113.159 198.097 119.484L169.322 113.792L169.321 113.791C170.203 109.331 170.667 104.719 170.667 100C170.667 95.2804 170.203 90.6689 169.321 86.2083L198.097 80.5156C199.348 86.8409 200 93.359 200 100Z" fill="white"/>
<path d="M100 160C66.8629 160 40 133.137 40 100C40 66.8629 66.8629 40 100 40C133.137 40 160 66.8629 160 100C160 133.137 133.137 160 100 160Z" fill="white"/>
</svg>
