<svg width="459" height="400" viewBox="0 0 459 400" fill="none" xmlns="http://www.w3.org/2000/svg">
<circle cx="150" cy="250" r="150" fill="#A83F2F"/>
<path d="M170.688 353.982L179.227 397.146C169.739 399.022 159.961 400 150 400C140.039 400 130.261 399.022 120.773 397.146L129.312 353.982V353.98C136.003 355.304 142.921 356 150 356C157.079 356 163.996 355.304 170.687 353.98L170.688 353.982ZM61.8555 308.895C69.594 320.453 79.5456 330.405 91.1045 338.144V338.146L66.627 374.709C50.2882 363.77 36.2295 349.712 25.291 333.373L61.8545 308.896L61.8555 308.895ZM238.146 308.896L274.709 333.373C263.77 349.712 249.712 363.77 233.373 374.709L208.896 338.146L208.895 338.144C220.454 330.405 230.405 320.454 238.144 308.895L238.146 308.896ZM44 250C44 257.079 44.695 263.996 46.0186 270.687L46.0176 270.688L2.85449 279.227C0.977505 269.739 0 259.961 0 250C0 240.039 0.977505 230.261 2.85449 220.773L46.0176 229.312C44.6939 236.003 44 242.921 44 250ZM256 250C256 242.921 255.304 236.003 253.98 229.312H253.982L297.146 220.773C299.022 230.261 300 240.039 300 250C300 259.961 299.022 269.739 297.146 279.227L253.982 270.688L253.98 270.687C255.304 263.996 256 257.079 256 250ZM91.1045 161.854C79.5457 169.593 69.5941 179.546 61.8555 191.104L25.291 166.627C36.2295 150.288 50.2882 136.23 66.627 125.291L91.1045 161.854ZM233.373 125.291C249.712 136.23 263.77 150.288 274.709 166.627L238.146 191.104H238.144C230.405 179.546 220.453 169.594 208.895 161.855L208.896 161.854L233.373 125.291ZM150 100C159.961 100 169.739 100.978 179.227 102.854L170.688 146.018L170.687 146.019C163.996 144.695 157.079 144 150 144C142.921 144 136.003 144.695 129.312 146.019L120.773 102.854C130.261 100.978 140.039 100 150 100Z" fill="white"/>
<path d="M240 250C240 299.706 199.706 340 150 340C100.294 340 60 299.706 60 250C60 200.294 100.294 160 150 160C199.706 160 240 200.294 240 250Z" fill="white"/>
<circle cx="309" cy="150" r="150" fill="#050C0C"/>
<path d="M329.688 253.982L338.227 297.146C328.739 299.022 318.961 300 309 300C299.039 300 289.261 299.022 279.773 297.146L288.312 253.982V253.98C295.003 255.304 301.921 256 309 256C316.079 256 322.996 255.304 329.687 253.98L329.688 253.982ZM220.855 208.895C228.594 220.453 238.546 230.405 250.104 238.144V238.146L225.627 274.709C209.288 263.77 195.23 249.712 184.291 233.373L220.854 208.896L220.855 208.895ZM397.146 208.896L433.709 233.373C422.77 249.712 408.712 263.77 392.373 274.709L367.896 238.146L367.895 238.144C379.454 230.405 389.405 220.454 397.144 208.895L397.146 208.896ZM203 150C203 157.079 203.695 163.996 205.019 170.687L205.018 170.688L161.854 179.227C159.978 169.739 159 159.961 159 150C159 140.039 159.978 130.261 161.854 120.773L205.018 129.312C203.694 136.003 203 142.921 203 150ZM415 150C415 142.921 414.304 136.003 412.98 129.312H412.982L456.146 120.773C458.022 130.261 459 140.039 459 150C459 159.961 458.022 169.739 456.146 179.227L412.982 170.688L412.98 170.687C414.304 163.996 415 157.079 415 150ZM250.104 61.8545C238.546 69.5931 228.594 79.5457 220.855 91.1045L184.291 66.627C195.23 50.2882 209.288 36.2295 225.627 25.291L250.104 61.8545ZM392.373 25.291C408.712 36.2295 422.77 50.2882 433.709 66.627L397.146 91.1045H397.144C389.405 79.5456 379.453 69.594 367.895 61.8555L367.896 61.8545L392.373 25.291ZM309 0C318.961 0 328.739 0.977505 338.227 2.85449L329.688 46.0176L329.687 46.0186C322.996 44.695 316.079 44 309 44C301.921 44 295.003 44.6949 288.312 46.0186L279.773 2.85449C289.261 0.977505 299.039 0 309 0Z" fill="white"/>
<path d="M399 150C399 199.706 358.706 240 309 240C259.294 240 219 199.706 219 150C219 100.294 259.294 60 309 60C358.706 60 399 100.294 399 150Z" fill="white"/>
</svg>
