<svg width="101" height="101" viewBox="0 0 101 101" fill="none" xmlns="http://www.w3.org/2000/svg">
<circle cx="50.3332" cy="50" r="50" fill="#A83F2F"/>
<path fill-rule="evenodd" clip-rule="evenodd" d="M50.333 0.000488281C53.6534 0.000488281 56.9126 0.326024 60.0752 0.95166L57.3271 14.8433C62.0112 15.8118 66.3622 17.6901 70.1875 20.2856L78.124 8.43018C83.5702 12.0763 88.2572 16.7623 91.9033 22.2085L79.9922 30.1821C82.5426 34.0155 84.3774 38.365 85.3066 43.0415L99.3818 40.2573C100.007 43.4199 100.333 46.68 100.333 50.0005C100.333 53.3208 100.007 56.5802 99.3818 59.7427L85.3418 56.9644C84.4352 61.6571 82.6179 66.0238 80.0801 69.8755L91.9033 77.7905C88.2571 83.2368 83.5703 87.9237 78.124 91.5698L70.2754 79.8452C66.4386 82.4653 62.0697 84.3621 57.3633 85.3403L60.0752 99.0483C56.9126 99.674 53.6534 100 50.333 100C47.0126 100 43.7534 99.674 40.5908 99.0483L43.2773 85.4663C38.5144 84.5666 34.084 82.7296 30.1836 80.1528L22.542 91.5698C17.0958 87.9237 12.4098 83.2367 8.76367 77.7905L20.123 70.186C17.5009 66.2941 15.6211 61.8617 14.6816 57.0913L1.28516 59.7427C0.659524 56.5802 0.33304 53.3208 0.333008 50.0005C0.333008 46.68 0.659494 43.4199 1.28516 40.2573L14.7168 42.9146C15.6792 38.1608 17.5781 33.7468 20.2129 29.8735L8.76367 22.2085C12.4098 16.7624 17.0959 12.0763 22.542 8.43018L30.2734 19.98C34.1621 17.4277 38.574 15.6086 43.3145 14.7183L40.5908 0.95166C43.7534 0.326013 47.0126 0.000504307 50.333 0.000488281ZM50 20.0962C33.4315 20.0962 20 33.5276 20 50.0962C20 66.6647 33.4315 80.0962 50 80.0962C66.5685 80.0962 80 66.6647 80 50.0962C80 33.5276 66.5685 20.0962 50 20.0962Z" fill="white"/>
<path d="M38.7326 64.0497L32.9419 47.6543L35.907 36.1427L45.7093 64.0497H38.7326ZM51.2907 64.0497L41.4884 36.1427H48.4651L54.2209 52.5381L51.2907 64.0497ZM64.9651 64.0497H58.4767V36.1427H64.9651V64.0497Z" fill="white"/>
</svg>
