<svg width="320" height="320" viewBox="0 0 320 320" fill="none" xmlns="http://www.w3.org/2000/svg">
<path fill-rule="evenodd" clip-rule="evenodd" d="M274.377 232.395C249.604 257.15 209.441 257.15 184.669 232.395L139.816 187.568L184.669 142.745C209.441 117.987 249.604 117.987 274.377 142.745C299.149 167.5 299.15 207.639 274.377 232.395Z" stroke="white" stroke-width="2"/>
<path fill-rule="evenodd" clip-rule="evenodd" d="M46.5793 142.743C71.3527 117.988 111.515 117.988 136.288 142.743L181.141 187.57L136.288 232.393C111.515 257.151 71.3527 257.151 46.5793 232.393C21.8069 207.638 21.8069 167.5 46.5793 142.743Z" stroke="white" stroke-width="2"/>
<path fill-rule="evenodd" clip-rule="evenodd" d="M205.332 55.5674C230.105 80.325 230.105 120.462 205.332 145.218L160.478 190.043L115.625 145.218C90.8527 120.462 90.8527 80.325 115.625 55.5674C140.396 30.8109 180.56 30.8109 205.332 55.5674Z" stroke="white" stroke-width="2"/>
<path fill-rule="evenodd" clip-rule="evenodd" d="M146.823 251.612L160.479 236.848L174.135 251.612C185.142 263.513 176.696 282.81 160.479 282.81C144.261 282.81 135.815 263.513 146.823 251.612Z" stroke="white" stroke-width="2"/>
</svg>
