<svg width="320" height="320" viewBox="0 0 320 320" fill="none" xmlns="http://www.w3.org/2000/svg">
<path fill-rule="evenodd" clip-rule="evenodd" d="M156.114 116.462C180.192 92.4419 219.228 92.4419 243.304 116.462L286.9 159.955L243.304 203.446C219.228 227.467 180.192 227.467 156.114 203.446C132.036 179.427 132.036 140.481 156.114 116.462Z" stroke="white" stroke-width="2"/>
<path fill-rule="evenodd" clip-rule="evenodd" d="M163.787 203.448C139.708 227.467 100.673 227.467 76.5957 203.448L33 159.955L76.5957 116.463C100.673 92.4418 139.708 92.4418 163.786 116.463C187.863 140.482 187.865 179.427 163.787 203.448Z" stroke="white" stroke-width="2"/>
<path fill-rule="evenodd" clip-rule="evenodd" d="M286.899 159.955C285.708 158.642 284.542 157.313 283.304 156.029L159.952 28L36.5943 156.029C35.3578 157.313 34.193 158.641 33.0004 159.954C34.1944 161.266 35.3591 162.595 36.5969 163.879L159.949 291.91L283.305 163.879C284.543 162.596 285.708 161.267 286.899 159.955Z" stroke="white" stroke-width="2"/>
</svg>
