<svg width="320" height="320" viewBox="0 0 320 320" fill="none" xmlns="http://www.w3.org/2000/svg">
<path fill-rule="evenodd" clip-rule="evenodd" d="M250.17 79.0235C275.532 104.389 275.532 145.512 250.17 170.876L204.247 216.801L158.327 170.876C132.965 145.512 132.965 104.389 158.327 79.0235C183.688 53.6588 224.808 53.6588 250.17 79.0235Z" stroke="white" stroke-width="2"/>
<path fill-rule="evenodd" clip-rule="evenodd" d="M161.865 79.0235C187.226 104.389 187.226 145.512 161.865 170.876L115.942 216.801L70.0224 170.876C44.6592 145.512 44.6592 104.389 70.0224 79.0235C95.3821 53.6588 136.502 53.6588 161.865 79.0235Z" stroke="white" stroke-width="2"/>
<path fill-rule="evenodd" clip-rule="evenodd" d="M206.018 123.041C231.379 148.407 231.379 189.53 206.018 214.894L160.095 260.82L114.175 214.894C88.8123 189.53 88.8123 148.407 114.175 123.041C139.535 97.6768 180.655 97.6768 206.018 123.041Z" stroke="white" stroke-width="2"/>
</svg>
