<svg width="320" height="320" viewBox="0 0 320 320" fill="none" xmlns="http://www.w3.org/2000/svg">
<path fill-rule="evenodd" clip-rule="evenodd" d="M70.0215 218.141C44.6595 192.727 44.6595 151.526 70.0215 126.114L115.943 80.1014L161.864 126.114C187.226 151.526 187.226 192.727 161.864 218.141C136.503 243.553 95.3835 243.555 70.0215 218.141Z" stroke="white" stroke-width="2"/>
<path fill-rule="evenodd" clip-rule="evenodd" d="M158.327 218.141C132.966 192.727 132.966 151.526 158.327 126.114L204.249 80.1014L250.17 126.114C275.533 151.526 275.533 192.727 250.17 218.141C224.809 243.553 183.689 243.555 158.327 218.141Z" stroke="white" stroke-width="2"/>
<path fill-rule="evenodd" clip-rule="evenodd" d="M114.174 174.039C88.8132 148.625 88.8132 107.424 114.174 82.0127L160.097 36L206.017 82.0127C231.38 107.424 231.38 148.625 206.017 174.039C180.656 199.452 139.536 199.453 114.174 174.039Z" stroke="white" stroke-width="2"/>
<path fill-rule="evenodd" clip-rule="evenodd" d="M146.116 252.355L160.097 237.201L174.078 252.355C185.347 264.572 176.7 284.38 160.097 284.38C143.493 284.38 134.846 264.57 146.116 252.355Z" stroke="white" stroke-width="2"/>
</svg>
